<svg width="300" height="300" viewBox="0 0 150 150" fill="none" xmlns="http://www.w3.org/2000/svg">
<path d="M121.875 18.75H28.125C22.9473 18.75 18.75 22.9473 18.75 28.125V121.875C18.75 127.053 22.9473 131.25 28.125 131.25H121.875C127.053 131.25 131.25 127.053 131.25 121.875V28.125C131.25 22.9473 127.053 18.75 121.875 18.75Z" stroke="#353535" stroke-width="11" stroke-linecap="round" stroke-linejoin="round"/>
<path d="M56.25 71.875C64.8794 71.875 71.875 64.8794 71.875 56.25C71.875 47.6206 64.8794 40.625 56.25 40.625C47.6206 40.625 40.625 47.6206 40.625 56.25C40.625 64.8794 47.6206 71.875 56.25 71.875Z" stroke="#353535" stroke-width="11" stroke-linecap="round" stroke-linejoin="round"/>
<path d="M131.25 112.5L96.875 81.25L65.625 109.375L43.75 90.625L18.75 109.375" stroke="#353535" stroke-width="11" stroke-linecap="round" stroke-linejoin="round"/>
</svg>
